<svg id="svg" version="1.1" xmlns="http://www.w3.org/2000/svg" xmlns:xlink="http://www.w3.org/1999/xlink" width="400" height="400" viewBox="0, 0, 400,400"><g id="svgg"><path id="path0" d="M41.611 77.697 C 4.211 125.708,-9.029 189.828,6.134 249.502 C 17.897 295.792,46.138 336.620,85.317 363.974 C 87.446 365.461,89.263 366.600,89.354 366.506 C 89.631 366.216,190.492 222.127,190.584 221.889 C 190.631 221.767,157.633 188.630,117.254 148.252 L 43.838 74.838 41.611 77.697 M227.518 311.944 C 252.981 311.976,294.581 311.976,319.963 311.944 C 345.344 311.913,324.511 311.888,273.667 311.888 C 222.822 311.888,202.055 311.913,227.518 311.944 " stroke="none" fill="#d4e4ec" fill-rule="evenodd"></path><path id="path1" d="M266.652 190.145 C 220.032 256.717,181.809 311.319,181.711 311.482 C 181.563 311.728,197.008 311.778,273.774 311.778 L 366.015 311.778 367.856 308.944 C 413.565 238.613,410.375 146.921,359.880 79.667 C 357.368 76.321,352.516 70.247,351.579 69.274 C 351.489 69.180,313.271 123.572,266.652 190.145 " stroke="none" fill="#acd4dc" fill-rule="evenodd"></path><path id="path2" d="M186.496 0.342 C 146.094 3.176,104.817 19.140,75.667 43.204 L 75.000 43.755 145.683 114.449 L 216.366 185.144 267.532 112.072 L 318.697 39.000 317.971 38.391 C 317.572 38.057,315.440 36.541,313.234 35.024 C 276.365 9.668,230.905 -2.772,186.496 0.342 " stroke="none" fill="#fc9c9c" fill-rule="evenodd"></path><path id="path3" d="M318.526 38.841 C 318.653 39.046,218.548 182.562,216.508 185.102 C 216.463 185.158,184.589 153.367,145.677 114.455 L 74.929 43.707 72.410 45.798 C 63.348 53.321,53.788 62.861,46.039 72.111 L 43.806 74.778 117.281 148.267 L 190.757 221.757 190.076 222.712 C 187.155 226.810,89.483 366.384,89.414 366.559 C 89.185 367.144,103.120 375.313,111.000 379.212 C 117.569 382.463,127.703 386.889,128.576 386.889 C 128.736 386.889,133.732 379.939,139.677 371.444 L 150.488 355.999 237.947 356.001 L 325.407 356.002 327.759 354.057 C 340.873 343.210,353.238 329.858,363.211 315.778 L 365.808 312.111 273.561 312.000 L 181.314 311.889 266.325 190.478 L 351.337 69.068 350.753 68.367 C 344.474 60.833,332.645 49.648,323.222 42.339 C 321.511 41.012,319.715 39.617,319.231 39.241 C 318.746 38.864,318.430 38.684,318.526 38.841 " stroke="none" fill="#fbfbfb" fill-rule="evenodd"></path><path id="path4" d="M139.616 371.530 L 128.743 387.060 129.427 387.292 C 129.803 387.420,132.011 388.188,134.333 388.999 C 148.259 393.861,162.951 397.183,178.000 398.873 C 186.312 399.806,188.108 399.889,200.000 399.889 C 211.892 399.889,213.688 399.806,222.000 398.873 C 255.804 395.077,287.329 383.149,315.222 363.602 C 318.614 361.225,324.799 356.548,325.017 356.194 C 325.086 356.083,287.634 356.000,237.813 356.000 L 150.489 356.000 139.616 371.530 " stroke="none" fill="#f4ecd4" fill-rule="evenodd"></path></g></svg>