<?xml version="1.0" standalone="no"?>
<!DOCTYPE svg PUBLIC "-//W3C//DTD SVG 1.0//EN" "http://www.w3.org/TR/2001/REC-SVG-20010904/DTD/svg10.dtd">
<svg xmlns="http://www.w3.org/2000/svg" xmlns:xlink="http://www.w3.org/1999/xlink" id="body_1" width="24" height="24">

<g transform="matrix(0.06 0 0 0.06 0 0)">
	<g transform="matrix(1 0 0 1 0 0)">
	</g>
    <path transform="matrix(1 0 0 1 0 0)"  d="M41.611 77.697C 4.211 125.708 -9.029 189.828 6.134 249.502C 17.897 295.792 46.138 336.62 85.317 363.974C 87.446 365.461 89.263 366.6 89.354 366.506C 89.631 366.216 190.492 222.127 190.584 221.889C 190.631 221.767 157.633 188.63 117.254 148.252L117.254 148.252L43.838 74.838L41.611 77.697zM227.518 311.944C 252.981 311.976 294.581 311.976 319.963 311.944C 345.344 311.913 324.511 311.888 273.667 311.888C 222.822 311.888 202.055 311.913 227.518 311.944" stroke="none" fill="#D4E4EC" fill-rule="nonzero" />
	<g transform="matrix(1 0 0 1 0 0)">
	</g>
    <path transform="matrix(1 0 0 1 0 0)"  d="M266.652 190.145C 220.032 256.717 181.809 311.319 181.711 311.482C 181.563 311.728 197.008 311.778 273.774 311.778L273.774 311.778L366.015 311.778L367.856 308.944C 413.565 238.613 410.375 146.921 359.88 79.667C 357.368 76.321 352.516 70.247 351.579 69.274C 351.489 69.18 313.271 123.572 266.652 190.145" stroke="none" fill="#ACD4DC" fill-rule="nonzero" />
	<g transform="matrix(1 0 0 1 0 0)">
	</g>
    <path transform="matrix(1 0 0 1 0 0)"  d="M186.496 0.342C 146.094 3.176 104.817 19.14 75.667 43.204L75.667 43.204L75 43.755L145.683 114.449L216.366 185.144L267.532 112.072L318.697 39L317.971 38.391C 317.572 38.057 315.44 36.541 313.234 35.024C 276.365 9.668 230.905 -2.772 186.496 0.342" stroke="none" fill="#FC9C9C" fill-rule="nonzero" />
	<g transform="matrix(1 0 0 1 0 0)">
	</g>
    <path transform="matrix(1 0 0 1 0 0)"  d="M318.526 38.841C 318.653 39.046 218.548 182.562 216.508 185.102C 216.463 185.158 184.589 153.367 145.677 114.455L145.677 114.455L74.929 43.707L72.41 45.798C 63.348 53.321 53.788 62.861 46.039 72.111L46.039 72.111L43.806 74.778L117.281 148.267L190.757 221.757L190.076 222.712C 187.155 226.81 89.483 366.384 89.414 366.559C 89.185 367.144 103.12 375.313 111 379.212C 117.569 382.463 127.703 386.889 128.576 386.889C 128.736 386.889 133.732 379.939 139.677 371.444L139.677 371.444L150.488 355.999L237.947 356.001L325.407 356.002L327.759 354.057C 340.873 343.21 353.238 329.858 363.211 315.778L363.211 315.778L365.808 312.111L273.561 312L181.314 311.889L266.325 190.478L351.337 69.068L350.753 68.367C 344.474 60.833 332.645 49.648 323.222 42.339C 321.511 41.012 319.715 39.617 319.231 39.241C 318.746 38.864 318.43 38.684 318.526 38.841" stroke="none" fill="#FBFBFB" fill-rule="nonzero" />
	<g transform="matrix(1 0 0 1 0 0)">
	</g>
    <path transform="matrix(1 0 0 1 0 0)"  d="M139.616 371.53L128.743 387.06L129.427 387.292C 129.803 387.42 132.011 388.188 134.333 388.999C 148.259 393.861 162.951 397.183 178 398.873C 186.312 399.806 188.108 399.889 200 399.889C 211.892 399.889 213.688 399.806 222 398.873C 255.804 395.077 287.329 383.149 315.222 363.602C 318.614 361.225 324.799 356.548 325.017 356.194C 325.086 356.083 287.634 356 237.813 356L237.813 356L150.489 356L139.616 371.53" stroke="none" fill="#F4ECD4" fill-rule="nonzero" />
</g>
</svg>