<?xml version="1.0" standalone="no"?>
<!DOCTYPE svg PUBLIC "-//W3C//DTD SVG 20010904//EN"
 "http://www.w3.org/TR/2001/REC-SVG-20010904/DTD/svg10.dtd">
<svg version="1.0" xmlns="http://www.w3.org/2000/svg"
 width="700.000000pt" height="700.000000pt" viewBox="0 0 700.000000 700.000000"
 preserveAspectRatio="xMidYMid meet">
<metadata>
Created by potrace 1.14, written by Peter Selinger 2001-2017
</metadata>
<g transform="translate(0.000000,700.000000) scale(0.100000,-0.100000)"
fill="#000000" stroke="none">
<path d="M3249 6996 c-2 -2 -33 -7 -69 -10 -36 -3 -81 -8 -100 -11 -19 -2 -57
-7 -85 -11 -53 -7 -74 -10 -115 -19 -14 -3 -34 -7 -45 -9 -462 -93 -902 -272
-1275 -519 -152 -100 -366 -276 -510 -418 -302 -299 -507 -581 -689 -950 -119
-239 -236 -572 -276 -780 -3 -13 -11 -58 -20 -99 -27 -140 -31 -166 -51 -355
-11 -98 -11 -524 -1 -620 4 -38 10 -97 13 -130 4 -50 41 -257 57 -330 185
-805 634 -1510 1278 -2006 53 -41 105 -80 115 -86 11 -7 44 -30 74 -51 143
-99 408 -242 595 -321 90 -39 309 -113 455 -155 49 -14 214 -51 280 -62 14 -2
36 -6 50 -9 14 -3 48 -7 75 -11 28 -3 61 -7 75 -9 156 -26 805 -26 849 -1 3 2
29 6 56 10 28 3 77 11 110 17 33 5 74 12 90 15 17 3 48 10 70 16 22 5 51 12
65 14 87 15 482 144 505 165 5 5 15 9 22 9 21 0 295 134 401 196 399 235 720
512 1003 869 87 109 149 197 144 205 -3 5 1 10 8 13 35 13 247 400 331 603
115 278 210 642 241 919 4 33 9 74 12 90 9 56 11 530 2 617 -8 85 -18 174 -24
213 -1 11 -6 43 -10 70 -4 28 -22 118 -41 200 -120 536 -354 1019 -709 1460
-22 28 -41 52 -42 54 -2 2 -13 -4 -25 -15 l-23 -19 18 21 c18 21 17 23 -14 60
-107 127 -408 400 -559 505 -153 108 -199 139 -204 139 -3 0 -31 16 -61 36
-152 97 -450 234 -680 312 -208 71 -488 135 -690 157 -33 4 -71 9 -85 12 -28
6 -585 14 -591 9z m2871 -1260 c0 -2 -8 -10 -17 -17 -16 -13 -17 -12 -4 4 13
16 21 21 21 13z m-120 -170 c0 -2 -8 -10 -17 -17 -16 -13 -17 -12 -4 4 13 16
21 21 21 13z m-2787 -4023 c-7 -2 -19 -2 -25 0 -7 3 -2 5 12 5 14 0 19 -2 13
-5z"/>
</g>
</svg>
